<?xml version="1.0" encoding="utf-8"?>
<!-- Generator: Adobe Illustrator 24.2.1, SVG Export Plug-In . SVG Version: 6.00 Build 0)  -->
<svg version="1.1" id="Calque_1" xmlns="http://www.w3.org/2000/svg" xmlns:xlink="http://www.w3.org/1999/xlink" x="0px" y="0px"
	 viewBox="0 0 1000 1000" style="enable-background:new 0 0 1000 1000;" xml:space="preserve">
<style type="text/css">
	.st0{fill:#3C1A26;} <!-- boots face-->
	.st1{fill:#29121A;} <!-- boots left-->
	.st2{fill:#421D2A;} <!-- boots up-->
	.st3{fill:#BD967F;} <!-- main skin-->
	.st4{fill:#FFFFFF;} <!-- eyes-->
	.st5{fill:#493239;} <!-- pupils-->
	.st6{opacity:0.3;fill:#000000;} <!-- skin dark face-->
	.st7{fill:#DB5B54;} <!-- main clothes-->
	.st8{opacity:0.25;fill:#000000;} <!-- left dark side jacket and cap-->
	.st9{opacity:0.1;fill:#000000;} <!-- jacket right side dark-->
	.st10{opacity:0.2;fill:#FFFFFF;} <!-- bight face top jacket cap-->
	.st11{fill:#FDFDFD;} <!-- main beard-->
	.st12{opacity:0.45; fill:#000000;} <!-- beard dark left-->
	.st13{opacity:0.1; fill:#000000;} <!-- beard dark face-->
</style>
<path class="st0" d="M839.7,734.5l0.3,91.7l-140.8,81.3l-0.3-91.7L839.7,734.5z"/>
<path class="st1" d="M699.1,907.6L450.3,762.9l-0.3-91.7l248.9,144.6L699.1,907.6z"/>
<path class="st2" d="M698.9,815.8L450,671.2l140.8-81.3l248.9,144.6L698.9,815.8z"/>
<path class="st0" d="M678.3,827l0.3,91.7L537.8,1000l-0.3-91.7L678.3,827z"/>
<path class="st1" d="M537.8,1000L288.9,855.4l-0.3-91.7l248.9,144.6L537.8,1000z"/>
<path class="st2" d="M537.5,908.3L288.7,763.6l140.8-81.3L678.3,827L537.5,908.3z"/>
<path class="st3" d="M833.4,314.3l0.8,261.7L492.5,773.2l-0.7-261.7L833.4,314.3z"/>
<path class="st4" d="M663,480.3l0.2,52.3l-45.5,26.3l0.1,52.3l45.6-26.3l-91.1,52.6L572,532.8L663,480.3z"/>
<path class="st5" d="M663.1,532.6l0.2,52.4l-45.6,26.3l-0.1-52.3L663.1,532.6z"/>
<path class="st4" d="M797,402.9l0.2,52.4l-45.5,26.3l0.1,52.3l45.5-26.3l-91.1,52.6l-0.3-104.7L797,402.9z"/>
<path class="st5" d="M797.1,455.3l0.1,52.3l-45.5,26.3l-0.1-52.3L797.1,455.3z"/>
<g id="skin_left">
	<polygon class="st3" points="491.8,511.5 153,314.6 154.2,576.1 492.5,773.2 	"/>
	<polygon class="st3" points="173.9,850.4 287.8,916.1 288,837.6 174.1,771.9 	"/>
</g>
<g>
	<polygon class="st6" points="491.8,511.5 153,314.6 154.2,576.1 492.5,773.2 	"/>
	<polygon class="st6" points="173.9,850.4 287.8,916.1 288,837.6 174.1,771.9 	"/>
</g>
<g id="red_left">
	<g id="face_red">
		<polygon class="st7" points="493.5,773.2 493.9,904.1 835.5,706.9 835.1,576.1 		"/>
		<polygon class="st7" points="833.6,197.2 492,394.4 492.4,525.3 834,328 		"/>
		<path class="st7" d="M771.4,427.4c-32.8,19.2-63.3,42-91,67.9v52.3c27.7-25.9,58.2-48.7,91-67.9c28.4-16.8,59.1-29.3,91.1-37.2
			v-52.3C830.5,398.1,799.8,410.6,771.4,427.4z"/>
	</g>
	<polygon class="st7" points="493.5,773.3 154.2,576.1 154.6,706.9 493.9,904.1 	"/>
	<polygon class="st7" points="492,394.4 152.6,197.3 153,328.1 492.4,525.3 	"/>
	<path class="st7" d="M680.5,547.6l-113.1-65.7l-0.2-52.4l113.1,65.7L680.5,547.6z"/>
</g>
<g id="dark_red_left">
	<polygon class="st8" points="154.6,706.9 493.9,904.1 493.5,773.3 154.2,576.1 	"/>
	<polygon class="st8" points="492.4,525.3 492,394.4 152.6,197.3 153,328.1 	"/>
	<path class="st8" d="M680.5,547.6l-113.1-65.7l-0.2-52.4l113.1,65.7L680.5,547.6z"/>
</g>
<path class="st3" d="M288,837.6l113.1-65.7l-0.2,78.5l-113.1,65.7L288,837.6z"/>
<polygon class="st7" points="140,752.1 174.1,771.9 288,837.6 322.2,857.3 322.3,804.9 140.2,699.7 "/>
<polygon class="st8" points="140,752.1 174.1,771.9 288,837.6 322.2,857.3 322.3,804.9 140.2,699.7 "/>
<path class="st7" d="M322.3,804.9l113.1-65.7l-0.1,52.4l-113.1,65.7L322.3,804.9z"/>
<path class="st9" d="M322.3,804.9l113.1-65.7l-0.1,52.4l-113.1,65.7L322.3,804.9z"/>
<g id="redface_up">
	<polygon class="st7" points="140.2,699.8 322.4,804.9 435.5,739.2 253.3,634 	"/>
	<polygon class="st7" points="494.2,0 152.6,197.2 492,394.4 833.5,197.2 	"/>
	<path class="st7" d="M748.6,323.2c0,0-57.6,19.3-90.4,38.5c-32.7,19.2-63.3,42-91,67.9l113.1,65.7c27.8-25.9,58.3-48.7,91.1-67.9
		c32.7-19.2,91.2-36.8,91.2-36.8L748.6,323.2z"/>
</g>
<g id="light_face_up">
	<polygon class="st10" points="140.2,699.8 322.4,804.9 435.5,739.2 253.3,634 	"/>
	<polygon class="st10" points="494.2,0 152.6,197.2 492,394.4 833.5,197.2 	"/>
	<path class="st10" d="M748.6,323.2c0,0-57.6,19.3-90.4,38.5c-32.7,19.2-63.3,42-91,67.9l113.1,65.7c27.8-25.9,58.3-48.7,91.1-67.9
		c32.7-19.2,91.2-36.8,91.2-36.8L748.6,323.2z"/>
</g>
<g>
	<polygon class="st11" points="858.7,542.3 836.1,529.2 492.4,727.6 492.4,727.6 469.8,740.7 492.5,753.8 515.1,740.7 515.1,740.7
		"/>
	<polygon class="st11" points="345.8,547.6 323.2,560.8 469.7,740.7 492.4,727.6 	"/>
	<path class="st11" d="M323.5,453.3l22.6-13.2l-0.3,107.4l-22.6,13.2L323.5,453.3z"/>
</g>
<g>
	<polygon class="st11" points="781.6,676.5 759,663.4 765,667.7 787.6,680.8 	"/>
	<polygon class="st11" points="709.5,705.5 721.3,716 743.9,729.2 732.1,718.6 	"/>
	<polygon class="st11" points="323.2,560.7 323.5,453.3 283.2,430.1 282.9,537.5 262.5,615.2 262.4,661.6 282.5,673.2 322.8,696.5
		492.4,799.6 492.5,753.7 469.7,740.6 	"/>
</g>
<g>
	<polygon class="st12" points="781.6,676.5 759,663.4 765,667.7 787.6,680.8 	"/>
	<polygon class="st12" points="709.5,705.5 721.3,716 743.9,729.2 732.1,718.6 	"/>
	<polygon class="st12" points="323.2,560.7 323.5,453.3 283.2,430.1 282.9,537.5 262.5,615.2 262.4,661.6 282.5,673.2 322.8,696.5
		492.4,799.6 492.5,753.7 469.7,740.6 	"/>
</g>
<g>
	<polygon class="st11" points="858.7,542.3 514.7,740.9 514.8,740.9 492.5,753.8 492.4,799.8 514.9,786.6 586.4,797 592.3,785.8
		630.2,794.8 642,770.7 687.2,788.1 732.1,718.6 743.9,729.1 781.6,676.5 787.6,680.8 858.8,588.1 858.8,579.7 858.8,565.4 	"/>
	<polygon class="st11" points="283.2,430 323.5,453.4 346.1,440.2 305.8,416.9 	"/>
</g>
<g>
	<polygon class="st13" points="858.7,542.3 514.7,740.9 514.8,740.9 492.5,753.8 492.4,799.8 514.9,786.6 586.4,797 592.3,785.8
		630.2,794.8 642,770.7 687.2,788.1 732.1,718.6 743.9,729.1 781.6,676.5 787.6,680.8 858.8,588.1 858.8,579.7 858.8,565.4 	"/>
	<polygon class="st13" points="283.2,430 323.5,453.4 346.1,440.2 305.8,416.9 	"/>
</g>
</svg>
